<svg height="1966" width="720" xmlns="http://www.w3.org/2000/svg">
<rect height="1966" fill="#555" width="720"></rect>
<text fill="#7f7" font-family="Courier New" font-size="12" xml:space="preserve">
<tspan x="10" y="26">9 megabytes</tspan>
<tspan x="10" y="42">└─┬ speed-test@1.8.0 </tspan>
<tspan x="10" y="58">  ├─┬ chalk@1.1.3 </tspan>
<tspan x="10" y="74">  │ ├── ansi-styles@2.2.1 </tspan>
<tspan x="10" y="90">  │ ├── escape-string-regexp@1.0.5 </tspan>
<tspan x="10" y="106">  │ ├─┬ has-ansi@2.0.0 </tspan>
<tspan x="10" y="122">  │ │ └── ansi-regex@2.1.1 </tspan>
<tspan x="10" y="138">  │ ├── strip-ansi@3.0.1 </tspan>
<tspan x="10" y="154">  │ └── supports-color@2.0.0 </tspan>
<tspan x="10" y="170">  ├── log-symbols@1.0.2 </tspan>
<tspan x="10" y="186">  ├─┬ log-update@1.0.2 </tspan>
<tspan x="10" y="202">  │ ├── ansi-escapes@1.4.0 </tspan>
<tspan x="10" y="218">  │ └─┬ cli-cursor@1.0.2 </tspan>
<tspan x="10" y="234">  │   └─┬ restore-cursor@1.0.1 </tspan>
<tspan x="10" y="250">  │     ├── exit-hook@1.1.1 </tspan>
<tspan x="10" y="266">  │     └── onetime@1.1.0 </tspan>
<tspan x="10" y="282">  ├─┬ meow@3.7.0 </tspan>
<tspan x="10" y="298">  │ ├─┬ camelcase-keys@2.1.0 </tspan>
<tspan x="10" y="314">  │ │ └── camelcase@2.1.1 </tspan>
<tspan x="10" y="330">  │ ├── decamelize@1.2.0 </tspan>
<tspan x="10" y="346">  │ ├─┬ loud-rejection@1.6.0 </tspan>
<tspan x="10" y="362">  │ │ ├─┬ currently-unhandled@0.4.1 </tspan>
<tspan x="10" y="378">  │ │ │ └── array-find-index@1.0.2 </tspan>
<tspan x="10" y="394">  │ │ └── signal-exit@3.0.2 </tspan>
<tspan x="10" y="410">  │ ├── map-obj@1.0.1 </tspan>
<tspan x="10" y="426">  │ ├── minimist@1.2.0 </tspan>
<tspan x="10" y="442">  │ ├─┬ normalize-package-data@2.3.6 </tspan>
<tspan x="10" y="458">  │ │ ├── hosted-git-info@2.4.1 </tspan>
<tspan x="10" y="474">  │ │ ├─┬ is-builtin-module@1.0.0 </tspan>
<tspan x="10" y="490">  │ │ │ └── builtin-modules@1.1.1 </tspan>
<tspan x="10" y="506">  │ │ ├── semver@5.3.0 </tspan>
<tspan x="10" y="522">  │ │ └─┬ validate-npm-package-license@3.0.1 </tspan>
<tspan x="10" y="538">  │ │   ├─┬ spdx-correct@1.0.2 </tspan>
<tspan x="10" y="554">  │ │   │ └── spdx-license-ids@1.2.2 </tspan>
<tspan x="10" y="570">  │ │   └── spdx-expression-parse@1.0.4 </tspan>
<tspan x="10" y="586">  │ ├── object-assign@4.1.1 </tspan>
<tspan x="10" y="602">  │ ├─┬ read-pkg-up@1.0.1 </tspan>
<tspan x="10" y="618">  │ │ ├─┬ find-up@1.1.2 </tspan>
<tspan x="10" y="634">  │ │ │ ├── path-exists@2.1.0 </tspan>
<tspan x="10" y="650">  │ │ │ └─┬ pinkie-promise@2.0.1 </tspan>
<tspan x="10" y="666">  │ │ │   └── pinkie@2.0.4 </tspan>
<tspan x="10" y="682">  │ │ └─┬ read-pkg@1.1.0 </tspan>
<tspan x="10" y="698">  │ │   ├─┬ load-json-file@1.1.0 </tspan>
<tspan x="10" y="714">  │ │   │ ├─┬ parse-json@2.2.0 </tspan>
<tspan x="10" y="730">  │ │   │ │ └─┬ error-ex@1.3.1 </tspan>
<tspan x="10" y="746">  │ │   │ │   └── is-arrayish@0.2.1 </tspan>
<tspan x="10" y="762">  │ │   │ ├── pify@2.3.0 </tspan>
<tspan x="10" y="778">  │ │   │ └─┬ strip-bom@2.0.0 </tspan>
<tspan x="10" y="794">  │ │   │   └── is-utf8@0.2.1 </tspan>
<tspan x="10" y="810">  │ │   └── path-type@1.1.0 </tspan>
<tspan x="10" y="826">  │ ├─┬ redent@1.0.0 </tspan>
<tspan x="10" y="842">  │ │ ├── indent-string@2.1.0 </tspan>
<tspan x="10" y="858">  │ │ └─┬ strip-indent@1.0.1 </tspan>
<tspan x="10" y="874">  │ │   └── get-stdin@4.0.1 </tspan>
<tspan x="10" y="890">  │ └── trim-newlines@1.0.0 </tspan>
<tspan x="10" y="906">  ├─┬ ora@0.2.3 </tspan>
<tspan x="10" y="922">  │ └── cli-spinners@0.1.2 </tspan>
<tspan x="10" y="938">  ├─┬ round-to@1.1.0 </tspan>
<tspan x="10" y="954">  │ └─┬ number-is-integer@1.0.1 </tspan>
<tspan x="10" y="970">  │   └─┬ is-finite@1.0.2 </tspan>
<tspan x="10" y="986">  │     └── number-is-nan@1.0.1 </tspan>
<tspan x="10" y="1002">  ├─┬ speedtest-net@1.3.1 </tspan>
<tspan x="10" y="1018">  │ ├── draftlog@1.0.12 </tspan>
<tspan x="10" y="1034">  │ └─┬ xml2js@0.4.17 </tspan>
<tspan x="10" y="1050">  │   ├── sax@1.2.2 </tspan>
<tspan x="10" y="1066">  │   └─┬ xmlbuilder@4.2.1 </tspan>
<tspan x="10" y="1082">  │     └── lodash@4.17.4 </tspan>
<tspan x="10" y="1098">  └─┬ update-notifier@0.6.3 </tspan>
<tspan x="10" y="1114">    ├─┬ boxen@0.3.1 </tspan>
<tspan x="10" y="1130">    │ ├── filled-array@1.1.0 </tspan>
<tspan x="10" y="1146">    │ ├── repeating@2.0.1 </tspan>
<tspan x="10" y="1162">    │ ├─┬ string-width@1.0.2 </tspan>
<tspan x="10" y="1178">    │ │ ├── code-point-at@1.1.0 </tspan>
<tspan x="10" y="1194">    │ │ └── is-fullwidth-code-point@1.0.0 </tspan>
<tspan x="10" y="1210">    │ └── widest-line@1.0.0 </tspan>
<tspan x="10" y="1226">    ├─┬ configstore@2.1.0 </tspan>
<tspan x="10" y="1242">    │ ├─┬ dot-prop@3.0.0 </tspan>
<tspan x="10" y="1258">    │ │ └── is-obj@1.0.1 </tspan>
<tspan x="10" y="1274">    │ ├── graceful-fs@4.1.11 </tspan>
<tspan x="10" y="1290">    │ ├─┬ mkdirp@0.5.1 </tspan>
<tspan x="10" y="1306">    │ │ └── minimist@0.0.8 </tspan>
<tspan x="10" y="1322">    │ ├── os-tmpdir@1.0.2 </tspan>
<tspan x="10" y="1338">    │ ├─┬ osenv@0.1.4 </tspan>
<tspan x="10" y="1354">    │ │ └── os-homedir@1.0.2 </tspan>
<tspan x="10" y="1370">    │ ├── uuid@2.0.3 </tspan>
<tspan x="10" y="1386">    │ ├─┬ write-file-atomic@1.3.1 </tspan>
<tspan x="10" y="1402">    │ │ ├── imurmurhash@0.1.4 </tspan>
<tspan x="10" y="1418">    │ │ └── slide@1.1.6 </tspan>
<tspan x="10" y="1434">    │ └── xdg-basedir@2.0.0 </tspan>
<tspan x="10" y="1450">    ├── is-npm@1.0.0 </tspan>
<tspan x="10" y="1466">    ├─┬ latest-version@2.0.0 </tspan>
<tspan x="10" y="1482">    │ └─┬ package-json@2.4.0 </tspan>
<tspan x="10" y="1498">    │   ├─┬ got@5.7.1 </tspan>
<tspan x="10" y="1514">    │   │ ├─┬ create-error-class@3.0.2 </tspan>
<tspan x="10" y="1530">    │   │ │ └── capture-stack-trace@1.0.0 </tspan>
<tspan x="10" y="1546">    │   │ ├── duplexer2@0.1.4 </tspan>
<tspan x="10" y="1562">    │   │ ├── is-redirect@1.0.0 </tspan>
<tspan x="10" y="1578">    │   │ ├── is-retry-allowed@1.1.0 </tspan>
<tspan x="10" y="1594">    │   │ ├── is-stream@1.1.0 </tspan>
<tspan x="10" y="1610">    │   │ ├── lowercase-keys@1.0.0 </tspan>
<tspan x="10" y="1626">    │   │ ├── node-status-codes@1.0.0 </tspan>
<tspan x="10" y="1642">    │   │ ├── read-all-stream@3.1.0 </tspan>
<tspan x="10" y="1658">    │   │ ├─┬ readable-stream@2.2.7 </tspan>
<tspan x="10" y="1674">    │   │ │ ├── buffer-shims@1.0.0 </tspan>
<tspan x="10" y="1690">    │   │ │ ├── core-util-is@1.0.2 </tspan>
<tspan x="10" y="1706">    │   │ │ ├── inherits@2.0.3 </tspan>
<tspan x="10" y="1722">    │   │ │ ├── isarray@1.0.0 </tspan>
<tspan x="10" y="1738">    │   │ │ ├── process-nextick-args@1.0.7 </tspan>
<tspan x="10" y="1754">    │   │ │ ├── string_decoder@1.0.0 </tspan>
<tspan x="10" y="1770">    │   │ │ └── util-deprecate@1.0.2 </tspan>
<tspan x="10" y="1786">    │   │ ├── timed-out@3.1.3 </tspan>
<tspan x="10" y="1802">    │   │ ├── unzip-response@1.0.2 </tspan>
<tspan x="10" y="1818">    │   │ └─┬ url-parse-lax@1.0.0 </tspan>
<tspan x="10" y="1834">    │   │   └── prepend-http@1.0.4 </tspan>
<tspan x="10" y="1850">    │   ├─┬ registry-auth-token@3.1.1 </tspan>
<tspan x="10" y="1866">    │   │ └─┬ rc@1.2.1 </tspan>
<tspan x="10" y="1882">    │   │   ├── deep-extend@0.4.1 </tspan>
<tspan x="10" y="1898">    │   │   ├── ini@1.3.4 </tspan>
<tspan x="10" y="1914">    │   │   └── strip-json-comments@2.0.1 </tspan>
<tspan x="10" y="1930">    │   └── registry-url@3.1.0 </tspan>
<tspan x="10" y="1946">    └── semver-diff@2.1.0</tspan>
</text>
</svg>
